<?xml version="1.0" encoding="UTF-8"?>
<!DOCTYPE svg PUBLIC "-//W3C//DTD SVG 1.1//EN" "http://www.w3.org/Graphics/SVG/1.1/DTD/svg11.dtd">
<svg xmlns="http://www.w3.org/2000/svg" version="1.1" width="512px" height="512px" style="shape-rendering:geometricPrecision; text-rendering:geometricPrecision; image-rendering:optimizeQuality; fill-rule:evenodd; clip-rule:evenodd" xmlns:xlink="http://www.w3.org/1999/xlink">
<g><path style="opacity:0.982" fill="#000000" d="M 99.5,-0.5 C 203.5,-0.5 307.5,-0.5 411.5,-0.5C 415.479,1.31481 418.312,4.31481 420,8.5C 420.333,48.8333 420.667,89.1667 421,129.5C 439.667,148.167 458.333,166.833 477,185.5C 478,187.167 479,188.833 480,190.5C 480.667,285.833 480.667,381.167 480,476.5C 474.984,494.682 463.484,506.348 445.5,511.5C 318.833,511.5 192.167,511.5 65.5,511.5C 47.5157,506.348 36.0157,494.682 31,476.5C 30.3333,381.167 30.3333,285.833 31,190.5C 32,188.833 33,187.167 34,185.5C 52.6667,166.833 71.3333,148.167 90,129.5C 90.3333,89.1667 90.6667,48.8333 91,8.5C 92.6878,4.31481 95.5212,1.31481 99.5,-0.5 Z M 120.5,29.5 C 210.5,29.5 300.5,29.5 390.5,29.5C 390.667,102.834 390.5,176.167 390,249.5C 362.833,276.667 335.667,303.833 308.5,331C 273.167,331.667 237.833,331.667 202.5,331C 175.333,303.833 148.167,276.667 121,249.5C 120.5,176.167 120.333,102.834 120.5,29.5 Z M 250.5,150.5 C 259.013,148.84 265.179,151.84 269,159.5C 270.479,173.354 264.313,179.521 250.5,178C 240.754,172.135 238.92,164.301 245,154.5C 247.015,153.303 248.849,151.97 250.5,150.5 Z M 89.5,174.5 C 90.6609,188.994 90.8276,203.661 90,218.5C 82.652,211.319 75.4854,203.986 68.5,196.5C 75.5215,189.146 82.5215,181.813 89.5,174.5 Z M 420.5,174.5 C 428.146,181.479 435.479,188.812 442.5,196.5C 435.515,203.986 428.348,211.319 421,218.5C 420.5,203.837 420.333,189.17 420.5,174.5 Z M 60.5,234.5 C 98.1457,271.479 135.479,308.812 172.5,346.5C 135.514,383.986 98.3471,421.32 61,458.5C 60.5,383.834 60.3333,309.167 60.5,234.5 Z M 449.5,234.5 C 450.666,308.999 450.832,383.666 450,458.5C 412.653,421.32 375.486,383.986 338.5,346.5C 375.521,309.146 412.521,271.812 449.5,234.5 Z M 202.5,361.5 C 237.835,361.333 273.168,361.5 308.5,362C 348.167,401.667 387.833,441.333 427.5,481C 312.833,481.667 198.167,481.667 83.5,481C 123.368,441.299 163.035,401.465 202.5,361.5 Z"/></g>
<g><path style="opacity:0.961" fill="#000000" d="M 241.5,59.5 C 293.254,55.9465 330.421,77.2798 353,123.5C 361.149,143.121 362.482,163.121 357,183.5C 343.092,207.363 322.926,214.863 296.5,206C 292.796,203.818 289.129,201.651 285.5,199.5C 270.408,210.245 254.075,212.412 236.5,206C 212.637,192.092 205.137,171.926 214,145.5C 227.908,121.637 248.074,114.137 274.5,123C 292.488,133.124 301.655,148.624 302,169.5C 306.44,178.296 313.273,180.796 322.5,177C 325.473,175.235 327.64,172.735 329,169.5C 330.393,140.118 318.893,117.285 294.5,101C 268.5,87 242.5,87 216.5,101C 184.61,123.689 174.443,153.856 186,191.5C 201.851,225.685 228.685,241.185 266.5,238C 276.849,235.772 287.016,232.938 297,229.5C 308.779,231.05 313.779,237.717 312,249.5C 310.93,252.242 309.43,254.742 307.5,257C 284.468,268.756 260.135,272.423 234.5,268C 189.893,257.06 162.393,229.227 152,184.5C 145.152,130.352 165.985,91.1858 214.5,67C 223.417,63.6909 232.417,61.1909 241.5,59.5 Z M 250.5,150.5 C 248.849,151.97 247.015,153.303 245,154.5C 238.92,164.301 240.754,172.135 250.5,178C 264.313,179.521 270.479,173.354 269,159.5C 265.179,151.84 259.013,148.84 250.5,150.5 Z"/></g>
</svg>
