<?xml version="1.0" encoding="UTF-8"?>
<!DOCTYPE svg PUBLIC "-//W3C//DTD SVG 1.1//EN" "http://www.w3.org/Graphics/SVG/1.1/DTD/svg11.dtd">
<svg xmlns="http://www.w3.org/2000/svg" version="1.1" width="512px" height="512px" style="shape-rendering:geometricPrecision; text-rendering:geometricPrecision; image-rendering:optimizeQuality; fill-rule:evenodd; clip-rule:evenodd" xmlns:xlink="http://www.w3.org/1999/xlink">
<g><path style="opacity:0.966" fill="#000000" d="M 511.5,90.5 C 511.5,200.5 511.5,310.5 511.5,420.5C 508.253,433.819 500.92,444.319 489.5,452C 483.883,455.317 477.883,457.65 471.5,459C 327.5,459.667 183.5,459.667 39.5,459C 23.3294,455.811 11.4961,446.978 4,432.5C 2.36954,428.429 0.869545,424.429 -0.5,420.5C -0.5,310.5 -0.5,200.5 -0.5,90.5C 2.74704,77.1813 10.0804,66.6813 21.5,59C 27.1175,55.6831 33.1175,53.3497 39.5,52C 183.5,51.3333 327.5,51.3333 471.5,52C 487.671,55.1885 499.504,64.0218 507,78.5C 508.63,82.5711 510.13,86.5711 511.5,90.5 Z M 41.5,73.5 C 184.167,73.3333 326.834,73.5 469.5,74C 481.871,78.0387 488.705,86.5387 490,99.5C 490.667,203.5 490.667,307.5 490,411.5C 488.705,424.461 481.871,432.961 469.5,437C 326.833,437.667 184.167,437.667 41.5,437C 29.1288,432.961 22.2955,424.461 21,411.5C 20.3333,307.5 20.3333,203.5 21,99.5C 22.4926,86.5186 29.3259,77.852 41.5,73.5 Z M 327.5,231.5 C 343.833,231.5 360.167,231.5 376.5,231.5C 376.5,247.5 376.5,263.5 376.5,279.5C 360.167,279.5 343.833,279.5 327.5,279.5C 327.5,263.5 327.5,247.5 327.5,231.5 Z"/></g>
<g><path style="opacity:0.944" fill="#000000" d="M 145.5,153.5 C 178.552,151.788 206.052,163.121 228,187.5C 231.247,194.777 229.414,200.277 222.5,204C 218.548,204.912 214.881,204.245 211.5,202C 184.715,174.59 153.715,168.59 118.5,184C 86.3637,204.333 73.5304,233.5 80,271.5C 86.417,304.584 105.917,325.417 138.5,334C 158.399,337.572 177.066,334.239 194.5,324C 201.5,318.333 208.5,312.667 215.5,307C 224.022,305.423 228.688,308.923 229.5,317.5C 229.485,319.634 228.985,321.634 228,323.5C 196.457,356.741 158.957,365.574 115.5,350C 83.091,334.574 63.9243,309.074 58,273.5C 52.2877,237.476 61.7877,206.309 86.5,180C 103.272,164.612 122.939,155.779 145.5,153.5 Z"/></g>
<g><path style="opacity:0.957" fill="#000000" d="M 314.5,153.5 C 320.619,153.3 324.786,155.967 327,161.5C 327.5,177.497 327.667,193.497 327.5,209.5C 367.168,209.333 406.835,209.5 446.5,210C 453.414,213.77 455.247,219.27 452,226.5C 450.786,228.049 449.286,229.215 447.5,230C 430.903,231.456 414.237,231.956 397.5,231.5C 397.5,247.5 397.5,263.5 397.5,279.5C 413.17,279.333 428.837,279.5 444.5,280C 453.087,282.676 455.587,288.176 452,296.5C 450.457,298.378 448.624,299.878 446.5,301C 430.17,301.5 413.837,301.667 397.5,301.5C 397.667,318.17 397.5,334.837 397,351.5C 390.408,359.363 383.742,359.363 377,351.5C 376.5,334.837 376.333,318.17 376.5,301.5C 360.167,301.5 343.833,301.5 327.5,301.5C 327.667,317.503 327.5,333.503 327,349.5C 325.327,354.434 321.827,357.1 316.5,357.5C 310.664,357.16 307.164,354.16 306,348.5C 305.5,332.837 305.333,317.17 305.5,301.5C 289.497,301.667 273.497,301.5 257.5,301C 252.791,299.083 250.458,295.583 250.5,290.5C 250.424,284.407 253.424,280.907 259.5,280C 274.83,279.5 290.163,279.333 305.5,279.5C 305.5,263.5 305.5,247.5 305.5,231.5C 290.163,231.667 274.83,231.5 259.5,231C 251.211,229.006 248.378,223.839 251,215.5C 252.251,212.619 254.417,210.786 257.5,210C 273.497,209.5 289.497,209.333 305.5,209.5C 305.333,193.83 305.5,178.163 306,162.5C 307.015,157.654 309.849,154.654 314.5,153.5 Z M 327.5,231.5 C 327.5,247.5 327.5,263.5 327.5,279.5C 343.833,279.5 360.167,279.5 376.5,279.5C 376.5,263.5 376.5,247.5 376.5,231.5C 360.167,231.5 343.833,231.5 327.5,231.5 Z"/></g>
<g><path style="opacity:0.91" fill="#000000" d="M 385.5,153.5 C 396.774,154.995 400.607,161.329 397,172.5C 390.333,180.5 383.667,180.5 377,172.5C 373.95,163.107 376.783,156.774 385.5,153.5 Z"/></g>
</svg>
