<?xml version="1.0" encoding="UTF-8"?>
<!DOCTYPE svg PUBLIC "-//W3C//DTD SVG 1.1//EN" "http://www.w3.org/Graphics/SVG/1.1/DTD/svg11.dtd">
<svg xmlns="http://www.w3.org/2000/svg" version="1.1" width="512px" height="512px" style="shape-rendering:geometricPrecision; text-rendering:geometricPrecision; image-rendering:optimizeQuality; fill-rule:evenodd; clip-rule:evenodd" xmlns:xlink="http://www.w3.org/1999/xlink">
<g><path style="opacity:0.94" fill="#000000" d="M 249.5,-0.5 C 252.833,-0.5 256.167,-0.5 259.5,-0.5C 262.542,1.22405 264.375,3.89071 265,7.5C 265.667,23.8333 265.667,40.1667 265,56.5C 262.346,64.126 257.179,66.626 249.5,64C 247.667,62.8333 246.167,61.3333 245,59.5C 244.333,41.1667 244.333,22.8333 245,4.5C 246.366,2.63834 247.866,0.971672 249.5,-0.5 Z"/></g>
<g><path style="opacity:0.91" fill="#000000" d="M 88.5,1.5 C 92.5991,1.36659 96.2657,2.53325 99.5,5C 111.667,17.1667 123.833,29.3333 136,41.5C 139.434,46.7923 139.267,51.959 135.5,57C 130.5,60.3333 125.5,60.3333 120.5,57C 108,44.5 95.5,32 83,19.5C 78.8036,11.5779 80.637,5.57795 88.5,1.5 Z"/></g>
<g><path style="opacity:0.927" fill="#000000" d="M 415.5,1.5 C 427.458,2.53114 430.958,8.53114 426,19.5C 413.5,32 401,44.5 388.5,57C 379.055,61.9425 373.055,59.2759 370.5,49C 370.891,45.8234 372.057,42.99 374,40.5C 387.753,27.2419 401.586,14.2419 415.5,1.5 Z"/></g>
<g><path style="opacity:0.947" fill="#000000" d="M 511.5,366.5 C 511.5,368.167 511.5,369.833 511.5,371.5C 510.702,378.373 508.202,384.707 504,390.5C 466.167,428.333 428.333,466.167 390.5,504C 384.71,508.183 378.377,510.683 371.5,511.5C 370.167,511.5 368.833,511.5 367.5,511.5C 361.668,510.613 356.001,508.779 350.5,506C 338.924,496.426 328.757,485.592 320,473.5C 317.655,466.333 316.989,459 318,451.5C 319.318,448.57 319.985,445.57 320,442.5C 306.833,429.333 293.667,416.167 280.5,403C 267.661,402.644 254.827,402.144 242,401.5C 236.956,401.245 232.123,402.079 227.5,404C 215,416.5 202.5,429 190,441.5C 191.963,447.426 193.13,453.593 193.5,460C 193.694,468.434 191.194,475.934 186,482.5C 178.833,489.667 171.667,496.833 164.5,504C 160.185,507.322 155.518,509.822 150.5,511.5C 144.833,511.5 139.167,511.5 133.5,511.5C 128.98,509.907 124.647,507.74 120.5,505C 111.667,496.167 102.833,487.333 94,478.5C 90.5094,470.661 92.6761,465.161 100.5,462C 103.257,461.416 105.923,461.75 108.5,463C 117.565,472.734 127.231,481.734 137.5,490C 140.5,490.667 143.5,490.667 146.5,490C 154.97,482.531 163.137,474.698 171,466.5C 173.21,461.643 172.877,456.976 170,452.5C 132.86,415.026 95.3595,377.86 57.5,341C 53.5,339 49.5,339 45.5,341C 37.3023,348.863 29.469,357.03 22,365.5C 20.993,370.111 21.6597,374.445 24,378.5C 32.6975,386.863 41.0308,395.53 49,404.5C 51.3859,412.728 48.3859,417.728 40,419.5C 37.7473,419.369 35.5806,418.869 33.5,418C 24.6667,409.167 15.8333,400.333 7,391.5C 2.79775,385.707 0.297747,379.373 -0.5,372.5C -0.5,370.833 -0.5,369.167 -0.5,367.5C 0.596139,362.048 2.42947,356.715 5,351.5C 12.8025,342.697 20.9691,334.197 29.5,326C 40.8601,317.915 53.0268,316.415 66,321.5C 76.6667,310.833 87.3333,300.167 98,289.5C 94.5593,284.64 91.5593,279.307 89,273.5C 84.9777,258.573 88.4777,245.74 99.5,235C 102.934,232.565 106.6,230.565 110.5,229C 101.034,210.993 103.701,194.993 118.5,181C 122.781,178.027 127.447,175.86 132.5,174.5C 129.16,158.682 133.827,145.849 146.5,136C 150.219,133.636 154.219,132.136 158.5,131.5C 155.121,114.458 160.454,100.958 174.5,91C 183.569,86.5716 193.069,85.4049 203,87.5C 207.065,85.5533 211.232,83.72 215.5,82C 221.5,81.3333 227.5,81.3333 233.5,82C 263.897,87.6803 294.231,93.347 324.5,99C 339.23,108.462 344.897,121.795 341.5,139C 362.479,146.446 371.645,161.279 369,183.5C 389.471,191.1 398.138,205.767 395,227.5C 415.149,234.787 423.816,249.12 421,270.5C 419.173,277.659 415.673,283.826 410.5,289C 421.333,299.833 432.167,310.667 443,321.5C 457.058,315.102 470.225,316.602 482.5,326C 492.112,334.606 500.612,344.106 508,354.5C 509.491,358.543 510.658,362.543 511.5,366.5 Z M 221.5,102.5 C 239.715,104.48 257.715,107.647 275.5,112C 267.319,120.348 258.986,128.514 250.5,136.5C 240.235,130.402 231.735,122.402 225,112.5C 222.965,109.439 221.799,106.105 221.5,102.5 Z M 188.5,107.5 C 192.273,107.263 195.94,107.763 199.5,109C 209.387,132.957 226.387,149.79 250.5,159.5C 254.712,171.292 250.712,178.626 238.5,181.5C 235.17,181.088 232.17,179.922 229.5,178C 213.333,161.833 197.167,145.667 181,129.5C 176.631,119.772 179.131,112.438 188.5,107.5 Z M 302.5,116.5 C 313.379,115.05 319.712,119.716 321.5,130.5C 321.534,133.433 320.701,136.1 319,138.5C 312,145.5 305,152.5 298,159.5C 293.018,171.179 296.851,177.012 309.5,177C 315.76,172.744 321.427,167.744 326.5,162C 343.022,158.522 349.522,165.022 346,181.5C 338.698,189.803 331.031,197.803 323,205.5C 320.162,216.326 324.329,221.492 335.5,221C 341.426,217.079 346.759,212.412 351.5,207C 363.732,201.783 371.399,205.616 374.5,218.5C 374.308,220.577 373.808,222.577 373,224.5C 366.031,232.47 358.698,240.136 351,247.5C 347.733,259.474 352.233,264.641 364.5,263C 369.876,257.956 375.542,253.289 381.5,249C 389.041,246.863 394.874,249.03 399,255.5C 401.226,260.686 400.893,265.686 398,270.5C 388.969,279.196 380.303,288.196 372,297.5C 369.372,309.539 374.205,314.372 386.5,312C 389.463,310.039 392.129,307.706 394.5,305C 395.167,304.333 395.833,304.333 396.5,305C 406.333,314.833 416.167,324.667 426,334.5C 426.667,335.167 426.667,335.833 426,336.5C 395.986,366.68 365.82,396.68 335.5,426.5C 324.681,416.181 314.014,405.681 303.5,395C 309.366,389.469 314.866,383.635 320,377.5C 321.924,369.26 318.757,364.26 310.5,362.5C 308.058,363.036 305.725,363.869 303.5,365C 299.5,369 295.5,373 291.5,377C 288.052,378.927 284.385,380.261 280.5,381C 263.831,381.099 247.165,381.099 230.5,381C 224.695,381.823 219.361,383.823 214.5,387C 201.319,400.347 187.986,413.514 174.5,426.5C 143.68,396.18 113.014,365.68 82.5,335C 92.8333,324.667 103.167,314.333 113.5,304C 117.458,304.755 121.458,305.755 125.5,307C 150.947,309.283 165.28,297.783 168.5,272.5C 189.829,270.504 201.496,258.838 203.5,237.5C 224.838,235.496 236.504,223.829 238.5,202.5C 263.794,199.25 275.294,184.917 273,159.5C 271.755,155.458 270.755,151.458 270,147.5C 280.426,136.57 291.259,126.237 302.5,116.5 Z M 162.5,151.5 C 168.208,150.69 173.208,152.19 177.5,156C 189.667,168.167 201.833,180.333 214,192.5C 218.967,199.733 218.467,206.567 212.5,213C 207.002,217.039 201.335,217.372 195.5,214C 182,200.5 168.5,187 155,173.5C 150.386,163.731 152.886,156.398 162.5,151.5 Z M 136.5,195.5 C 140.792,195.035 144.792,195.868 148.5,198C 159,208.5 169.5,219 180,229.5C 184.404,241.355 180.404,248.689 168,251.5C 165.268,251.385 162.768,250.552 160.5,249C 148.299,238.466 137.132,226.966 127,214.5C 124.919,205.327 128.086,198.994 136.5,195.5 Z M 117.5,248.5 C 122.449,247.959 127.116,248.792 131.5,251C 135.667,255.167 139.833,259.333 144,263.5C 149.786,275.597 146.119,283.263 133,286.5C 130.747,286.369 128.581,285.869 126.5,285C 119.216,279.72 113.382,273.22 109,265.5C 108.103,257.961 110.936,252.295 117.5,248.5 Z M 456.5,338.5 C 460.131,338.16 463.464,338.994 466.5,341C 473.667,348.167 480.833,355.333 488,362.5C 490.168,367.657 489.835,372.657 487,377.5C 450.5,414 414,450.5 377.5,487C 372.657,489.835 367.657,490.168 362.5,488C 354.333,481.167 346.833,473.667 340,465.5C 337.79,460.643 338.123,455.976 341,451.5C 377.833,414.667 414.667,377.833 451.5,341C 453.315,340.243 454.981,339.41 456.5,338.5 Z"/></g>
<g><path style="opacity:0.889" fill="#000000" d="M 337.5,331.5 C 348.49,329.992 353.324,334.658 352,345.5C 346.468,353.874 340.134,354.54 333,347.5C 330.159,340.871 331.659,335.538 337.5,331.5 Z"/></g>
<g><path style="opacity:0.896" fill="#000000" d="M 65.5,429.5 C 76.6769,428.832 81.1769,433.832 79,444.5C 74.6604,450.864 69.1604,452.031 62.5,448C 57.0107,440.789 58.0107,434.622 65.5,429.5 Z"/></g>
</svg>
