<?xml version="1.0" encoding="UTF-8"?>
<!DOCTYPE svg PUBLIC "-//W3C//DTD SVG 1.1//EN" "http://www.w3.org/Graphics/SVG/1.1/DTD/svg11.dtd">
<svg xmlns="http://www.w3.org/2000/svg" version="1.1" width="512px" height="512px" style="shape-rendering:geometricPrecision; text-rendering:geometricPrecision; image-rendering:optimizeQuality; fill-rule:evenodd; clip-rule:evenodd" xmlns:xlink="http://www.w3.org/1999/xlink">
<g><path style="opacity:0.933" fill="#000000" d="M 203.5,-0.5 C 225.167,-0.5 246.833,-0.5 268.5,-0.5C 295.552,3.94328 318.719,15.9433 338,35.5C 341.235,44.5944 338.068,48.7611 328.5,48C 308.012,26.9265 283.012,15.9265 253.5,15C 235.099,14.0203 216.765,14.687 198.5,17C 155.141,27.6929 128.641,54.8596 119,98.5C 117.294,113.142 117.127,127.808 118.5,142.5C 120.733,142.136 122.566,141.136 124,139.5C 124.898,131.01 126.565,122.677 129,114.5C 131.424,107.189 136.591,103.689 144.5,104C 160.324,102.105 175.991,103.105 191.5,107C 211.167,112.667 230.833,118.333 250.5,124C 260.573,126.153 270.739,127.653 281,128.5C 299.246,128.656 316.413,124.489 332.5,116C 337.814,114.74 341.647,116.574 344,121.5C 345.364,127.816 346.53,134.15 347.5,140.5C 349.108,141.318 350.775,141.985 352.5,142.5C 355.95,117.321 352.95,92.9872 343.5,69.5C 344.12,64.8797 346.787,62.213 351.5,61.5C 353.711,62.1228 355.711,63.1228 357.5,64.5C 364.129,77.6772 367.962,91.6772 369,106.5C 369.432,134.56 370.099,162.56 371,190.5C 369.054,198.111 364.554,203.611 357.5,207C 352.663,208.299 347.829,209.466 343,210.5C 333.833,240.174 315.666,262.507 288.5,277.5C 287.336,283.472 287.17,289.472 288,295.5C 288.707,297.081 289.54,298.581 290.5,300C 294.038,299.742 297.704,300.076 301.5,301C 325.385,308.428 349.219,315.928 373,323.5C 415.511,311.541 451.178,322.208 480,355.5C 506.867,394.585 507.2,433.919 481,473.5C 464.22,494.302 442.72,506.969 416.5,511.5C 407.5,511.5 398.5,511.5 389.5,511.5C 377.335,509.101 365.669,504.934 354.5,499C 242.777,498.994 131.111,498.327 19.5,497C 14.5637,494.303 11.7303,490.136 11,484.5C 10.3333,463.167 10.3333,441.833 11,420.5C 11.2542,405.545 14.9208,391.545 22,378.5C 29.0709,374.487 33.5709,376.32 35.5,384C 33.341,391.146 31.1744,398.312 29,405.5C 28.0046,410.453 27.3379,415.453 27,420.5C 26.5,441.164 26.3334,461.831 26.5,482.5C 40.1667,482.5 53.8333,482.5 67.5,482.5C 67.3334,458.831 67.5,435.164 68,411.5C 69.3929,408.634 71.7262,407.301 75,407.5C 79.8329,407.332 82.4996,409.665 83,414.5C 83.5,437.164 83.6666,459.831 83.5,482.5C 166.834,482.667 250.167,482.5 333.5,482C 308.19,454.135 300.69,421.968 311,385.5C 318.168,363.674 331.334,346.507 350.5,334C 343.429,330.642 336.096,328.309 328.5,327C 310.5,345 292.5,363 274.5,381C 266.425,384.799 258.758,384.133 251.5,379C 246.31,374.252 240.976,369.752 235.5,365.5C 228.841,370.177 222.508,375.343 216.5,381C 209.833,384.333 203.167,384.333 196.5,381C 178.319,362.653 159.986,344.486 141.5,326.5C 120.141,333.231 98.808,340.064 77.5,347C 68.3621,351.15 60.0287,356.483 52.5,363C 43.4988,364.329 39.9988,360.496 42,351.5C 50.7484,343.429 60.5817,336.929 71.5,332C 104.094,321.469 136.761,311.135 169.5,301C 173.296,300.076 176.962,299.742 180.5,300C 181.46,298.581 182.293,297.081 183,295.5C 183.83,289.472 183.664,283.472 182.5,277.5C 155.334,262.507 137.167,240.174 128,210.5C 106.612,208.606 97.1123,196.939 99.5,175.5C 101.102,152.236 101.935,128.903 102,105.5C 110.866,46.1362 144.699,10.8028 203.5,-0.5 Z M 153.5,118.5 C 163.936,118.744 174.269,119.91 184.5,122C 200.618,126.262 216.618,130.928 232.5,136C 261.588,145.547 290.921,146.547 320.5,139C 323.5,137.833 326.5,136.667 329.5,135.5C 330.298,137.078 330.798,138.744 331,140.5C 331.667,156.167 331.667,171.833 331,187.5C 324.789,231.046 300.623,259.212 258.5,272C 206.185,280.595 168.685,261.095 146,213.5C 144.022,207.589 142.355,201.589 141,195.5C 139.448,177.198 139.114,158.865 140,140.5C 140.977,133.786 142.143,127.119 143.5,120.5C 147.011,120.101 150.344,119.434 153.5,118.5 Z M 121.5,157.5 C 123.44,169.151 124.273,181.151 124,193.5C 120.396,192.703 117.729,190.703 116,187.5C 115.333,179.5 115.333,171.5 116,163.5C 117.36,160.977 119.193,158.977 121.5,157.5 Z M 347.5,157.5 C 351.02,158.183 353.52,160.183 355,163.5C 355.667,171.5 355.667,179.5 355,187.5C 353.271,190.703 350.604,192.703 347,193.5C 347.391,181.536 347.557,169.536 347.5,157.5 Z M 199.5,285.5 C 223.5,292.167 247.5,292.167 271.5,285.5C 270.148,294.56 272.148,302.726 277.5,310C 263.644,321.357 249.644,332.523 235.5,343.5C 221.356,332.523 207.356,321.357 193.5,310C 198.852,302.726 200.852,294.56 199.5,285.5 Z M 172.5,316.5 C 173.873,316.343 175.207,316.51 176.5,317C 191.544,329.713 206.878,342.046 222.5,354C 217.833,358.333 213.167,362.667 208.5,367C 207.5,367.667 206.5,367.667 205.5,367C 190.167,351.667 174.833,336.333 159.5,321C 164.101,319.943 168.434,318.443 172.5,316.5 Z M 294.5,316.5 C 300.227,317.685 305.894,319.185 311.5,321C 296.167,336.333 280.833,351.667 265.5,367C 264.5,367.667 263.5,367.667 262.5,367C 257.833,362.667 253.167,358.333 248.5,354C 264.087,341.72 279.42,329.22 294.5,316.5 Z M 393.5,334.5 C 435.267,332.786 464.101,351.119 480,389.5C 490.448,429.166 478.948,460.666 445.5,484C 405.632,504.225 370.465,498.058 340,465.5C 316.109,430.667 316.775,396.334 342,362.5C 356.023,347.241 373.189,337.908 393.5,334.5 Z"/></g>
<g><path style="opacity:0.932" fill="#000000" d="M 399.5,363.5 C 405.348,362.002 409.181,364.002 411,369.5C 411.5,382.496 411.667,395.496 411.5,408.5C 424.504,408.333 437.504,408.5 450.5,409C 454.562,409.891 456.562,412.391 456.5,416.5C 456.849,419.971 455.516,422.471 452.5,424C 438.837,424.5 425.171,424.667 411.5,424.5C 411.667,437.837 411.5,451.171 411,464.5C 406.42,472.067 401.42,472.401 396,465.5C 395.5,451.837 395.333,438.171 395.5,424.5C 381.829,424.667 368.163,424.5 354.5,424C 347.599,418.58 347.933,413.58 355.5,409C 368.829,408.5 382.163,408.333 395.5,408.5C 395.333,394.829 395.5,381.163 396,367.5C 397.032,365.973 398.199,364.64 399.5,363.5 Z"/></g>
</svg>
