<?xml version="1.0" encoding="UTF-8"?>
<!DOCTYPE svg PUBLIC "-//W3C//DTD SVG 1.1//EN" "http://www.w3.org/Graphics/SVG/1.1/DTD/svg11.dtd">
<svg xmlns="http://www.w3.org/2000/svg" version="1.1" width="512px" height="512px" style="shape-rendering:geometricPrecision; text-rendering:geometricPrecision; image-rendering:optimizeQuality; fill-rule:evenodd; clip-rule:evenodd" xmlns:xlink="http://www.w3.org/1999/xlink">
<g><path style="opacity:0.992" fill="#000000" d="M 99.5,-0.5 C 103.5,-0.5 107.5,-0.5 111.5,-0.5C 115.479,1.31481 118.312,4.31481 120,8.5C 120.5,22.496 120.667,36.496 120.5,50.5C 130.5,50.5 140.5,50.5 150.5,50.5C 150.333,36.496 150.5,22.496 151,8.5C 152.688,4.31481 155.521,1.31481 159.5,-0.5C 163.5,-0.5 167.5,-0.5 171.5,-0.5C 175.479,1.31481 178.312,4.31481 180,8.5C 180.5,22.496 180.667,36.496 180.5,50.5C 190.5,50.5 200.5,50.5 210.5,50.5C 210.333,36.496 210.5,22.496 211,8.5C 212.688,4.31481 215.521,1.31481 219.5,-0.5C 223.5,-0.5 227.5,-0.5 231.5,-0.5C 235.479,1.31481 238.312,4.31481 240,8.5C 240.5,22.496 240.667,36.496 240.5,50.5C 250.5,50.5 260.5,50.5 270.5,50.5C 270.333,36.496 270.5,22.496 271,8.5C 272.688,4.31481 275.521,1.31481 279.5,-0.5C 283.5,-0.5 287.5,-0.5 291.5,-0.5C 295.479,1.31481 298.312,4.31481 300,8.5C 300.5,22.496 300.667,36.496 300.5,50.5C 310.5,50.5 320.5,50.5 330.5,50.5C 330.333,36.496 330.5,22.496 331,8.5C 332.688,4.31481 335.521,1.31481 339.5,-0.5C 343.5,-0.5 347.5,-0.5 351.5,-0.5C 355.479,1.31481 358.312,4.31481 360,8.5C 360.5,22.496 360.667,36.496 360.5,50.5C 370.5,50.5 380.5,50.5 390.5,50.5C 390.333,36.496 390.5,22.496 391,8.5C 392.688,4.31481 395.521,1.31481 399.5,-0.5C 403.5,-0.5 407.5,-0.5 411.5,-0.5C 415.479,1.31481 418.312,4.31481 420,8.5C 420.5,22.496 420.667,36.496 420.5,50.5C 430.839,50.3335 441.172,50.5002 451.5,51C 455.667,52.5 458.5,55.3333 460,59.5C 460.5,69.828 460.666,80.1613 460.5,90.5C 474.504,90.3334 488.504,90.5001 502.5,91C 506.685,92.6878 509.685,95.5212 511.5,99.5C 511.5,103.5 511.5,107.5 511.5,111.5C 509.685,115.479 506.685,118.312 502.5,120C 488.504,120.5 474.504,120.667 460.5,120.5C 460.5,130.5 460.5,140.5 460.5,150.5C 474.504,150.333 488.504,150.5 502.5,151C 506.685,152.688 509.685,155.521 511.5,159.5C 511.5,163.5 511.5,167.5 511.5,171.5C 509.685,175.479 506.685,178.312 502.5,180C 488.504,180.5 474.504,180.667 460.5,180.5C 460.5,190.5 460.5,200.5 460.5,210.5C 474.504,210.333 488.504,210.5 502.5,211C 506.685,212.688 509.685,215.521 511.5,219.5C 511.5,223.5 511.5,227.5 511.5,231.5C 509.685,235.479 506.685,238.312 502.5,240C 488.504,240.5 474.504,240.667 460.5,240.5C 460.5,250.5 460.5,260.5 460.5,270.5C 474.504,270.333 488.504,270.5 502.5,271C 506.685,272.688 509.685,275.521 511.5,279.5C 511.5,283.5 511.5,287.5 511.5,291.5C 509.685,295.479 506.685,298.312 502.5,300C 488.504,300.5 474.504,300.667 460.5,300.5C 460.5,310.5 460.5,320.5 460.5,330.5C 474.504,330.333 488.504,330.5 502.5,331C 506.685,332.688 509.685,335.521 511.5,339.5C 511.5,343.5 511.5,347.5 511.5,351.5C 509.685,355.479 506.685,358.312 502.5,360C 488.504,360.5 474.504,360.667 460.5,360.5C 460.5,370.5 460.5,380.5 460.5,390.5C 474.504,390.333 488.504,390.5 502.5,391C 506.685,392.688 509.685,395.521 511.5,399.5C 511.5,403.5 511.5,407.5 511.5,411.5C 509.685,415.479 506.685,418.312 502.5,420C 488.504,420.5 474.504,420.667 460.5,420.5C 460.666,430.839 460.5,441.172 460,451.5C 458.5,455.667 455.667,458.5 451.5,460C 441.172,460.5 430.839,460.666 420.5,460.5C 420.667,474.504 420.5,488.504 420,502.5C 418.312,506.685 415.479,509.685 411.5,511.5C 407.5,511.5 403.5,511.5 399.5,511.5C 395.521,509.685 392.688,506.685 391,502.5C 390.5,488.504 390.333,474.504 390.5,460.5C 380.5,460.5 370.5,460.5 360.5,460.5C 360.667,474.504 360.5,488.504 360,502.5C 358.312,506.685 355.479,509.685 351.5,511.5C 347.5,511.5 343.5,511.5 339.5,511.5C 335.521,509.685 332.688,506.685 331,502.5C 330.5,488.504 330.333,474.504 330.5,460.5C 320.5,460.5 310.5,460.5 300.5,460.5C 300.667,474.504 300.5,488.504 300,502.5C 298.312,506.685 295.479,509.685 291.5,511.5C 287.5,511.5 283.5,511.5 279.5,511.5C 275.521,509.685 272.688,506.685 271,502.5C 270.5,488.504 270.333,474.504 270.5,460.5C 260.5,460.5 250.5,460.5 240.5,460.5C 240.667,474.504 240.5,488.504 240,502.5C 238.312,506.685 235.479,509.685 231.5,511.5C 227.5,511.5 223.5,511.5 219.5,511.5C 215.521,509.685 212.688,506.685 211,502.5C 210.5,488.504 210.333,474.504 210.5,460.5C 200.5,460.5 190.5,460.5 180.5,460.5C 180.667,474.504 180.5,488.504 180,502.5C 178.312,506.685 175.479,509.685 171.5,511.5C 167.5,511.5 163.5,511.5 159.5,511.5C 155.521,509.685 152.688,506.685 151,502.5C 150.5,488.504 150.333,474.504 150.5,460.5C 140.5,460.5 130.5,460.5 120.5,460.5C 120.667,474.504 120.5,488.504 120,502.5C 118.312,506.685 115.479,509.685 111.5,511.5C 107.5,511.5 103.5,511.5 99.5,511.5C 95.5212,509.685 92.6878,506.685 91,502.5C 90.5001,488.504 90.3334,474.504 90.5,460.5C 80.1613,460.666 69.828,460.5 59.5,460C 55.3333,458.5 52.5,455.667 51,451.5C 50.5002,441.172 50.3335,430.839 50.5,420.5C 36.496,420.667 22.496,420.5 8.5,420C 4.31481,418.312 1.31481,415.479 -0.5,411.5C -0.5,407.5 -0.5,403.5 -0.5,399.5C 1.31481,395.521 4.31481,392.688 8.5,391C 22.496,390.5 36.496,390.333 50.5,390.5C 50.5,380.5 50.5,370.5 50.5,360.5C 36.496,360.667 22.496,360.5 8.5,360C 4.31481,358.312 1.31481,355.479 -0.5,351.5C -0.5,347.5 -0.5,343.5 -0.5,339.5C 1.31481,335.521 4.31481,332.688 8.5,331C 22.496,330.5 36.496,330.333 50.5,330.5C 50.5,320.5 50.5,310.5 50.5,300.5C 36.496,300.667 22.496,300.5 8.5,300C 4.31481,298.312 1.31481,295.479 -0.5,291.5C -0.5,287.5 -0.5,283.5 -0.5,279.5C 1.31481,275.521 4.31481,272.688 8.5,271C 22.496,270.5 36.496,270.333 50.5,270.5C 50.5,260.5 50.5,250.5 50.5,240.5C 36.496,240.667 22.496,240.5 8.5,240C 4.31481,238.312 1.31481,235.479 -0.5,231.5C -0.5,227.5 -0.5,223.5 -0.5,219.5C 1.31481,215.521 4.31481,212.688 8.5,211C 22.496,210.5 36.496,210.333 50.5,210.5C 50.5,200.5 50.5,190.5 50.5,180.5C 36.496,180.667 22.496,180.5 8.5,180C 4.31481,178.312 1.31481,175.479 -0.5,171.5C -0.5,167.5 -0.5,163.5 -0.5,159.5C 1.31481,155.521 4.31481,152.688 8.5,151C 22.496,150.5 36.496,150.333 50.5,150.5C 50.5,140.5 50.5,130.5 50.5,120.5C 36.496,120.667 22.496,120.5 8.5,120C 4.31481,118.312 1.31481,115.479 -0.5,111.5C -0.5,107.5 -0.5,103.5 -0.5,99.5C 1.31481,95.5212 4.31481,92.6878 8.5,91C 22.496,90.5001 36.496,90.3334 50.5,90.5C 50.3335,80.1613 50.5002,69.828 51,59.5C 52.5,55.3333 55.3333,52.5 59.5,51C 69.828,50.5002 80.1613,50.3335 90.5,50.5C 90.3334,36.496 90.5001,22.496 91,8.5C 92.6878,4.31481 95.5212,1.31481 99.5,-0.5 Z M 80.5,80.5 C 197.167,80.5 313.833,80.5 430.5,80.5C 430.5,197.167 430.5,313.833 430.5,430.5C 313.833,430.5 197.167,430.5 80.5,430.5C 80.5,313.833 80.5,197.167 80.5,80.5 Z M 140.5,140.5 C 217.167,140.5 293.833,140.5 370.5,140.5C 370.5,217.167 370.5,293.833 370.5,370.5C 293.833,370.5 217.167,370.5 140.5,370.5C 140.5,293.833 140.5,217.167 140.5,140.5 Z M 229.5,235.5 C 230.497,235.47 231.164,235.97 231.5,237C 235.806,248.088 239.806,259.255 243.5,270.5C 234.833,270.5 226.167,270.5 217.5,270.5C 221.5,258.833 225.5,247.167 229.5,235.5 Z"/></g>
<g><path style="opacity:0.998" fill="#000000" d="M 119.5,110.5 C 210.167,110.333 300.834,110.5 391.5,111C 395.667,112.5 398.5,115.333 400,119.5C 400.667,210.167 400.667,300.833 400,391.5C 398.5,395.667 395.667,398.5 391.5,400C 300.833,400.667 210.167,400.667 119.5,400C 115.333,398.5 112.5,395.667 111,391.5C 110.333,300.833 110.333,210.167 111,119.5C 112.688,115.315 115.521,112.315 119.5,110.5 Z M 140.5,140.5 C 140.5,217.167 140.5,293.833 140.5,370.5C 217.167,370.5 293.833,370.5 370.5,370.5C 370.5,293.833 370.5,217.167 370.5,140.5C 293.833,140.5 217.167,140.5 140.5,140.5 Z M 229.5,235.5 C 225.5,247.167 221.5,258.833 217.5,270.5C 226.167,270.5 234.833,270.5 243.5,270.5C 239.806,259.255 235.806,248.088 231.5,237C 231.164,235.97 230.497,235.47 229.5,235.5 Z"/></g>
<g><path style="opacity:0.965" fill="#000000" d="M 224.5,180.5 C 232.461,179.046 239.294,181.046 245,186.5C 262.254,229.096 278.421,272.096 293.5,315.5C 291.69,327.744 284.69,332.578 272.5,330C 269.461,328.969 266.961,327.135 265,324.5C 261.829,316.983 258.662,309.483 255.5,302C 238.503,301.5 221.503,301.333 204.5,301.5C 202.243,309.353 199.41,317.02 196,324.5C 189.402,331.043 181.902,332.209 173.5,328C 168.475,323.591 166.642,318.091 168,311.5C 183,271.833 198,232.167 213,192.5C 215.045,186.624 218.878,182.624 224.5,180.5 Z M 229.5,235.5 C 225.5,247.167 221.5,258.833 217.5,270.5C 226.167,270.5 234.833,270.5 243.5,270.5C 239.806,259.255 235.806,248.088 231.5,237C 231.164,235.97 230.497,235.47 229.5,235.5 Z"/></g>
<g><path style="opacity:0.961" fill="#000000" d="M 322.5,180.5 C 332.5,178.58 339.334,182.246 343,191.5C 343.667,234.167 343.667,276.833 343,319.5C 340.827,327.005 335.827,330.671 328,330.5C 320.173,330.671 315.173,327.005 313,319.5C 312.333,276.833 312.333,234.167 313,191.5C 314.599,186.406 317.766,182.739 322.5,180.5 Z"/></g>
</svg>
