<?xml version="1.0" encoding="UTF-8"?>
<!DOCTYPE svg PUBLIC "-//W3C//DTD SVG 1.1//EN" "http://www.w3.org/Graphics/SVG/1.1/DTD/svg11.dtd">
<svg xmlns="http://www.w3.org/2000/svg" version="1.1" width="512px" height="512px" style="shape-rendering:geometricPrecision; text-rendering:geometricPrecision; image-rendering:optimizeQuality; fill-rule:evenodd; clip-rule:evenodd" xmlns:xlink="http://www.w3.org/1999/xlink">
<g><path style="opacity:0.97" fill="#000000" d="M 511.5,412.5 C 511.5,421.167 511.5,429.833 511.5,438.5C 505.637,460.834 490.97,473 467.5,475C 437.167,475.667 406.833,475.667 376.5,475C 371.468,474.36 366.468,473.527 361.5,472.5C 356.532,473.527 351.532,474.36 346.5,475C 250.833,475.667 155.167,475.667 59.5,475C 38.3333,469.833 25.1667,456.667 20,435.5C 16.5479,409.064 26.7145,390.064 50.5,378.5C 50.8333,377.167 51.1667,375.833 51.5,374.5C 47.5564,329.177 43.7231,283.844 40,238.5C 39.7811,237.062 39.2811,235.729 38.5,234.5C 29.3788,230.546 23.2121,223.88 20,214.5C 19.5001,201.504 19.3334,188.504 19.5,175.5C 14.4889,175.666 9.48892,175.499 4.5,175C 2.63834,173.634 0.971672,172.134 -0.5,170.5C -0.5,167.167 -0.5,163.833 -0.5,160.5C 0.971672,158.866 2.63834,157.366 4.5,156C 9.48892,155.501 14.4889,155.334 19.5,155.5C 19.5,148.833 19.5,142.167 19.5,135.5C 14.4889,135.666 9.48892,135.499 4.5,135C 2.63834,133.634 0.971672,132.134 -0.5,130.5C -0.5,119.5 -0.5,108.5 -0.5,97.5C 2.98437,86.5167 10.3177,79.3501 21.5,76C 49.498,75.5 77.498,75.3334 105.5,75.5C 105.333,63.8286 105.5,52.1619 106,40.5C 107.167,38.6667 108.667,37.1667 110.5,36C 147.167,35.3333 183.833,35.3333 220.5,36C 222.333,37.1667 223.833,38.6667 225,40.5C 225.5,52.1619 225.667,63.8286 225.5,75.5C 253.502,75.3334 281.502,75.5 309.5,76C 320.667,79.1667 327.833,86.3333 331,97.5C 331.667,108.5 331.667,119.5 331,130.5C 329.833,132.333 328.333,133.833 326.5,135C 321.511,135.499 316.511,135.666 311.5,135.5C 311.5,142.167 311.5,148.833 311.5,155.5C 316.511,155.334 321.511,155.501 326.5,156C 331.275,159.655 332.775,164.488 331,170.5C 329.833,172.333 328.333,173.833 326.5,175C 321.511,175.499 316.511,175.666 311.5,175.5C 311.667,188.171 311.5,200.838 311,213.5C 308.162,223.671 301.828,230.671 292,234.5C 290.782,241.451 289.948,248.451 289.5,255.5C 308.503,255.333 327.503,255.5 346.5,256C 351.272,259.699 352.772,264.533 351,270.5C 345.5,287 340,303.5 334.5,320C 343.913,328.718 352.913,337.884 361.5,347.5C 370.087,337.884 379.087,328.718 388.5,320C 383,303.5 377.5,287 372,270.5C 370.228,264.533 371.728,259.699 376.5,256C 406.5,255.333 436.5,255.333 466.5,256C 471.272,259.699 472.772,264.533 471,270.5C 465.5,287 460,303.5 454.5,320C 459.634,325.464 465.134,330.631 471,335.5C 491.888,357.276 505.388,382.943 511.5,412.5 Z M 125.5,55.5 C 152.167,55.5 178.833,55.5 205.5,55.5C 205.5,62.1667 205.5,68.8333 205.5,75.5C 178.833,75.5 152.167,75.5 125.5,75.5C 125.5,68.8333 125.5,62.1667 125.5,55.5 Z M 29.5,95.5 C 120.167,95.3333 210.834,95.5 301.5,96C 307.333,96.5 310.5,99.6667 311,105.5C 311.498,108.817 311.665,112.15 311.5,115.5C 276.165,115.333 240.832,115.5 205.5,116C 200.725,119.655 199.225,124.488 201,130.5C 202.167,132.333 203.667,133.833 205.5,135C 214.16,135.5 222.827,135.666 231.5,135.5C 231.333,147.171 231.5,158.838 232,170.5C 235.655,175.275 240.488,176.775 246.5,175C 248.333,173.833 249.833,172.333 251,170.5C 251.5,158.838 251.667,147.171 251.5,135.5C 264.833,135.5 278.167,135.5 291.5,135.5C 291.667,158.836 291.5,182.169 291,205.5C 290.771,208.458 289.604,210.958 287.5,213C 283.971,214.466 280.305,215.466 276.5,216C 274.667,217.167 273.167,218.667 272,220.5C 270.338,232.109 269.171,243.776 268.5,255.5C 264.486,255.334 260.486,255.501 256.5,256C 252.818,258.164 251.151,261.331 251.5,265.5C 256.922,284.259 262.422,302.925 268,321.5C 238.413,344.987 219.747,375.32 212,412.5C 210.876,423.966 211.543,435.3 214,446.5C 215.373,449.412 216.873,452.246 218.5,455C 182.5,455.667 146.5,455.667 110.5,455C 120.306,439.465 122.139,422.965 116,405.5C 107.358,387.027 92.858,377.027 72.5,375.5C 68.4955,323.779 63.9955,272.113 59,220.5C 57.8333,218.667 56.3333,217.167 54.5,216C 50.6952,215.466 47.0286,214.466 43.5,213C 41.396,210.958 40.2293,208.458 40,205.5C 39.5,182.169 39.3334,158.836 39.5,135.5C 52.8333,135.5 66.1667,135.5 79.5,135.5C 79.3335,147.171 79.5001,158.838 80,170.5C 83.6551,175.275 88.4884,176.775 94.5,175C 96.3333,173.833 97.8333,172.333 99,170.5C 99.4999,158.838 99.6665,147.171 99.5,135.5C 108.173,135.666 116.84,135.5 125.5,135C 130.275,131.345 131.775,126.512 130,120.5C 128.833,118.667 127.333,117.167 125.5,116C 90.1682,115.5 54.8349,115.333 19.5,115.5C 19.2748,110.752 19.7748,106.085 21,101.5C 22.9425,98.122 25.7759,96.122 29.5,95.5 Z M 276.5,275.5 C 293.167,275.5 309.833,275.5 326.5,275.5C 322.642,288.574 318.476,301.574 314,314.5C 305.667,315.833 297.333,315.833 289,314.5C 284.524,301.574 280.358,288.574 276.5,275.5 Z M 396.5,275.5 C 413.167,275.5 429.833,275.5 446.5,275.5C 442.642,288.574 438.476,301.574 434,314.5C 425.667,315.833 417.333,315.833 409,314.5C 404.524,301.574 400.358,288.574 396.5,275.5 Z M 284.5,335.5 C 295.838,335.333 307.172,335.5 318.5,336C 345.309,355.771 362.476,381.937 370,414.5C 370.667,421.5 370.667,428.5 370,435.5C 368.548,442.926 364.382,448.093 357.5,451C 353.58,452.313 349.58,453.313 345.5,454C 320.854,455.524 296.187,455.858 271.5,455C 261.014,455.303 251.014,453.303 241.5,449C 236.761,445.687 233.928,441.187 233,435.5C 231.111,420.945 233.111,406.945 239,393.5C 249.164,370.177 264.331,350.844 284.5,335.5 Z M 404.5,335.5 C 415.838,335.333 427.172,335.5 438.5,336C 465.309,355.771 482.476,381.937 490,414.5C 490.667,421.5 490.667,428.5 490,435.5C 487.315,445.516 480.815,451.349 470.5,453C 462.697,454.088 454.864,454.921 447,455.5C 426.504,454.886 406.004,454.219 385.5,453.5C 388.56,448.593 390.394,443.26 391,437.5C 393.292,412.169 387.792,388.669 374.5,367C 382.977,355.023 392.977,344.523 404.5,335.5 Z M 62.5,396.5 C 87.6435,395.476 99.4769,407.476 98,432.5C 90.5552,452.218 76.7219,458.718 56.5,452C 40.6638,441.816 36.4971,427.983 44,410.5C 48.526,403.505 54.6926,398.839 62.5,396.5 Z"/></g>
<g><path style="opacity:0.908" fill="#000000" d="M 160.5,115.5 C 172.324,113.824 177.158,118.824 175,130.5C 171.345,135.275 166.512,136.775 160.5,135C 155.725,131.345 154.225,126.512 156,120.5C 157.366,118.638 158.866,116.972 160.5,115.5 Z"/></g>
<g><path style="opacity:0.988" fill="#000000" d="M 110.5,215.5 C 116.52,214.22 121.353,215.887 125,220.5C 125.667,263.833 125.667,307.167 125,350.5C 121.345,355.275 116.512,356.775 110.5,355C 108.667,353.833 107.167,352.333 106,350.5C 105.333,307.167 105.333,263.833 106,220.5C 107.366,218.638 108.866,216.972 110.5,215.5 Z"/></g>
<g><path style="opacity:0.988" fill="#000000" d="M 160.5,215.5 C 166.52,214.22 171.353,215.887 175,220.5C 175.667,263.833 175.667,307.167 175,350.5C 171.345,355.275 166.512,356.775 160.5,355C 158.667,353.833 157.167,352.333 156,350.5C 155.333,307.167 155.333,263.833 156,220.5C 157.366,218.638 158.866,216.972 160.5,215.5 Z"/></g>
<g><path style="opacity:0.988" fill="#000000" d="M 210.5,215.5 C 216.52,214.22 221.353,215.887 225,220.5C 225.667,263.833 225.667,307.167 225,350.5C 221.345,355.275 216.512,356.775 210.5,355C 208.667,353.833 207.167,352.333 206,350.5C 205.333,307.167 205.333,263.833 206,220.5C 207.366,218.638 208.866,216.972 210.5,215.5 Z"/></g>
<g><path style="opacity:0.908" fill="#000000" d="M 64.5,415.5 C 76.3244,413.824 81.1577,418.824 79,430.5C 75.3449,435.275 70.5116,436.775 64.5,435C 59.7255,431.345 58.2255,426.512 60,420.5C 61.3657,418.638 62.8657,416.972 64.5,415.5 Z"/></g>
</svg>
