<?xml version="1.0" encoding="UTF-8"?>
<!DOCTYPE svg PUBLIC "-//W3C//DTD SVG 1.1//EN" "http://www.w3.org/Graphics/SVG/1.1/DTD/svg11.dtd">
<svg xmlns="http://www.w3.org/2000/svg" version="1.1" width="512px" height="512px" style="shape-rendering:geometricPrecision; text-rendering:geometricPrecision; image-rendering:optimizeQuality; fill-rule:evenodd; clip-rule:evenodd" xmlns:xlink="http://www.w3.org/1999/xlink">
<g><path style="opacity:0.93" fill="#000000" d="M 458.5,-0.5 C 461.833,-0.5 465.167,-0.5 468.5,-0.5C 471.2,1.04602 473.033,3.37935 474,6.5C 475.146,14.8153 476.146,23.1486 477,31.5C 485.168,36.2497 493.168,41.2497 501,46.5C 504.676,53.2957 503.51,59.129 497.5,64C 485.768,72.0613 473.768,79.728 461.5,87C 458.833,87.6667 456.167,87.6667 453.5,87C 445.253,82.6269 437.086,78.1269 429,73.5C 420.5,79.3333 412,85.1667 403.5,91C 411.494,120.015 401.16,139.015 372.5,148C 342.705,149.941 326.039,136.107 322.5,106.5C 324.127,83.0582 336.46,69.2248 359.5,65C 372.491,63.6641 383.825,67.3308 393.5,76C 394.5,76.6667 395.5,76.6667 396.5,76C 404.968,70.6829 412.968,64.8496 420.5,58.5C 419.318,50.3608 418.318,42.1942 417.5,34C 417.329,30.8707 418.162,28.0373 420,25.5C 432.738,16.5788 445.571,7.91216 458.5,-0.5 Z M 458.5,18.5 C 460.052,23.2746 460.552,28.2746 460,33.5C 452.172,39.0814 444.172,44.4148 436,49.5C 434.501,44.5218 434.334,39.5218 435.5,34.5C 443.408,29.3908 451.074,24.0574 458.5,18.5 Z M 468.5,47.5 C 473.525,48.8451 478.192,51.0118 482.5,54C 474.167,59.5 465.833,65 457.5,70.5C 453.172,68.6713 449.172,66.338 445.5,63.5C 453.208,58.1088 460.875,52.7754 468.5,47.5 Z M 361.5,80.5 C 368.398,80.3797 374.732,82.213 380.5,86C 372.913,91.0432 365.413,96.2099 358,101.5C 354.95,111.119 358.45,115.285 368.5,114C 375.419,109.624 382.252,105.124 389,100.5C 392.113,116.749 385.613,127.249 369.5,132C 351.764,132.954 341.43,124.62 338.5,107C 340.353,92.9882 348.02,84.1548 361.5,80.5 Z"/></g>
<g><path style="opacity:0.927" fill="#000000" d="M 352.5,0.5 C 369.623,-0.744183 386.29,1.42248 402.5,7C 408.543,9.88437 410.043,14.3844 407,20.5C 405.023,21.9049 402.857,22.9049 400.5,23.5C 359.487,8.90069 324.32,17.5674 295,49.5C 274.481,76.12 269.481,105.453 280,137.5C 280.667,140.167 280.667,142.833 280,145.5C 274.205,154.926 268.038,164.092 261.5,173C 274.428,172.028 287.428,171.361 300.5,171C 328.579,196.016 360.579,202.683 396.5,191C 433.466,174.609 453.3,146.109 456,105.5C 457.393,102.634 459.726,101.301 463,101.5C 467.888,101.886 470.722,104.553 471.5,109.5C 468.172,154.314 446.172,186.148 405.5,205C 365.846,219.731 329.512,214.064 296.5,188C 283.818,187.786 271.151,188.286 258.5,189.5C 245.512,190.022 240.345,184.022 243,171.5C 250.097,160.964 256.931,150.298 263.5,139.5C 250.227,86.9075 265.894,45.4075 310.5,15C 323.765,7.63514 337.765,2.80181 352.5,0.5 Z"/></g>
<g><path style="opacity:0.925" fill="#000000" d="M 364.5,30.5 C 377.991,30.8736 390.657,34.3736 402.5,41C 406.447,48.1159 404.613,52.9493 397,55.5C 372.276,43.2415 348.776,45.0748 326.5,61C 302.957,84.2017 299.124,110.368 315,139.5C 329.234,158.699 348.401,167.865 372.5,167C 378.205,172.814 377.538,177.814 370.5,182C 340.102,183.551 316.602,171.718 300,146.5C 281.125,108.884 286.958,75.7175 317.5,47C 331.606,36.7994 347.272,31.2994 364.5,30.5 Z"/></g>
<g><path style="opacity:0.918" fill="#000000" d="M 429.5,92.5 C 434.584,91.755 438.084,93.755 440,98.5C 442.066,130.202 429.899,154.702 403.5,172C 394.211,174.29 390.378,170.79 392,161.5C 395.201,157.638 399.034,154.472 403.5,152C 419.099,136.884 426.266,118.384 425,96.5C 426.397,94.9297 427.897,93.5964 429.5,92.5 Z"/></g>
<g><path style="opacity:0.924" fill="#000000" d="M 154.5,95.5 C 192.257,91.8084 223.09,104.475 247,133.5C 248.801,140.236 246.301,144.236 239.5,145.5C 237.459,144.764 235.459,143.931 233.5,143C 208.838,114.006 178.171,105.006 141.5,116C 125.27,122.949 108.937,129.616 92.5,136C 88.8333,139 85.1667,142 81.5,145C 73.3809,146.875 69.5476,143.708 70,135.5C 74.2102,129.622 79.3768,124.789 85.5,121C 101.937,114.616 118.27,107.949 134.5,101C 141.208,98.8343 147.874,97.001 154.5,95.5 Z"/></g>
<g><path style="opacity:0.934" fill="#000000" d="M 19.5,511.5 C 16.8333,511.5 14.1667,511.5 11.5,511.5C 1.92749,473.312 9.42749,438.645 34,407.5C 41.8513,399.502 50.3513,392.335 59.5,386C 79.8333,376.167 100.167,366.333 120.5,356.5C 121.664,350.193 121.831,343.859 121,337.5C 101.577,324.336 90.5768,306.002 88,282.5C 63.5444,279.723 54.7111,266.557 61.5,243C 58.7212,225.882 56.2212,208.715 54,191.5C 53.1138,182.105 53.4471,172.772 55,163.5C 58.0133,158.465 62.1799,157.298 67.5,160C 68.7014,160.903 69.5348,162.069 70,163.5C 69.5948,171.813 69.5948,180.147 70,188.5C 71.975,202.491 73.8083,216.491 75.5,230.5C 79.4659,229.838 83.4659,229.505 87.5,229.5C 85.4513,208.361 90.2846,189.028 102,171.5C 107.552,166.088 113.719,165.254 120.5,169C 137.212,182.243 156.212,190.243 177.5,193C 192.833,193.333 208.167,193.667 223.5,194C 230.333,195.5 234.5,199.667 236,206.5C 236.5,214.159 236.666,221.826 236.5,229.5C 240.534,229.505 244.534,229.838 248.5,230.5C 248.789,222.343 249.956,214.343 252,206.5C 257.842,201.96 262.509,202.96 266,209.5C 265.721,220.848 264.888,232.182 263.5,243.5C 269.097,266.574 260.097,279.574 236.5,282.5C 233.069,307.752 220.569,327.085 199,340.5C 198.171,345.864 198.337,351.198 199.5,356.5C 217.621,364.727 235.621,373.227 253.5,382C 257.796,387.461 257.129,392.127 251.5,396C 249.167,396.667 246.833,396.667 244.5,396C 228.833,388.5 213.167,381 197.5,373.5C 185.291,398.602 166.291,405.769 140.5,395C 132.516,389.673 126.683,382.507 123,373.5C 105.788,381.522 88.6214,389.689 71.5,398C 45.7506,413.3 30.2506,435.8 25,465.5C 23.9039,479.477 23.2373,493.477 23,507.5C 22.3103,509.35 21.1436,510.684 19.5,511.5 Z M 112.5,184.5 C 145.112,206.504 181.112,214.837 220.5,209.5C 220.667,233.502 220.5,257.502 220,281.5C 215.063,309.771 198.563,326.937 170.5,333C 136.146,334.962 114.313,319.462 105,286.5C 103.392,261.536 103.059,236.536 104,211.5C 105.132,201.939 107.965,192.939 112.5,184.5 Z M 82.5,245.5 C 84.1667,245.5 85.8333,245.5 87.5,245.5C 87.5,252.167 87.5,258.833 87.5,265.5C 76.6357,264.744 73.1357,259.411 77,249.5C 78.8121,248.023 80.6455,246.69 82.5,245.5 Z M 236.5,245.5 C 243.746,245.082 248.079,248.415 249.5,255.5C 247.969,262.436 243.636,265.769 236.5,265.5C 236.5,258.833 236.5,252.167 236.5,245.5 Z M 137.5,345.5 C 152.271,350.029 167.271,350.695 182.5,347.5C 182.666,353.842 182.5,360.175 182,366.5C 176.842,381.33 166.675,386.496 151.5,382C 143.997,378.495 139.497,372.662 138,364.5C 137.5,358.175 137.334,351.842 137.5,345.5 Z"/></g>
<g><path style="opacity:0.923" fill="#000000" d="M 308.5,511.5 C 305.833,511.5 303.167,511.5 300.5,511.5C 299.164,509.99 297.997,508.323 297,506.5C 296.667,494.167 296.333,481.833 296,469.5C 292.99,446.481 283.323,426.814 267,410.5C 266.472,400.373 270.972,397.206 280.5,401C 309.889,433.06 319.223,469.893 308.5,511.5 Z"/></g>
<g><path style="opacity:0.922" fill="#000000" d="M 76.5,511.5 C 73.8333,511.5 71.1667,511.5 68.5,511.5C 67.1639,509.99 65.9973,508.323 65,506.5C 64.3333,494.167 64.3333,481.833 65,469.5C 69.1377,462.473 74.1377,461.806 80,467.5C 80.6667,480.833 80.6667,494.167 80,507.5C 79.3103,509.35 78.1436,510.684 76.5,511.5 Z"/></g>
<g><path style="opacity:0.923" fill="#000000" d="M 251.5,511.5 C 248.833,511.5 246.167,511.5 243.5,511.5C 242.164,509.99 240.997,508.323 240,506.5C 239.333,494.167 239.333,481.833 240,469.5C 244.138,462.473 249.138,461.806 255,467.5C 255.667,480.833 255.667,494.167 255,507.5C 254.31,509.35 253.144,510.684 251.5,511.5 Z"/></g>
</svg>
