<?xml version="1.0" encoding="UTF-8"?>
<!DOCTYPE svg PUBLIC "-//W3C//DTD SVG 1.1//EN" "http://www.w3.org/Graphics/SVG/1.1/DTD/svg11.dtd">
<svg xmlns="http://www.w3.org/2000/svg" version="1.1" width="512px" height="512px" style="shape-rendering:geometricPrecision; text-rendering:geometricPrecision; image-rendering:optimizeQuality; fill-rule:evenodd; clip-rule:evenodd" xmlns:xlink="http://www.w3.org/1999/xlink">
<g><path style="opacity:0.986" fill="#000000" d="M 208.5,-0.5 C 239.833,-0.5 271.167,-0.5 302.5,-0.5C 336.046,7.212 356.879,27.8787 365,61.5C 365.5,89.498 365.667,117.498 365.5,145.5C 393.169,145.333 420.835,145.5 448.5,146C 475.385,150.859 494.552,165.693 506,190.5C 508.007,196.227 509.841,201.893 511.5,207.5C 511.5,239.167 511.5,270.833 511.5,302.5C 506.235,329.157 491.235,348.324 466.5,360C 460.668,362.277 454.668,363.944 448.5,365C 420.835,365.5 393.169,365.667 365.5,365.5C 365.667,393.169 365.5,420.835 365,448.5C 360.141,475.385 345.307,494.552 320.5,506C 314.469,508.168 308.469,510.001 302.5,511.5C 271.167,511.5 239.833,511.5 208.5,511.5C 174.959,503.793 154.126,483.126 146,449.5C 145.5,421.502 145.333,393.502 145.5,365.5C 117.831,365.667 90.1647,365.5 62.5,365C 35.6147,360.141 16.4481,345.307 5,320.5C 3.02525,314.746 1.19192,309.079 -0.5,303.5C -0.5,271.5 -0.5,239.5 -0.5,207.5C 5.0485,181.283 20.0485,162.449 44.5,151C 50.3165,148.712 56.3165,147.046 62.5,146C 90.1647,145.5 117.831,145.333 145.5,145.5C 145.333,117.498 145.5,89.498 146,61.5C 151.143,35.0527 165.976,16.2194 190.5,5C 196.519,2.83459 202.519,1.00126 208.5,-0.5 Z M 220.5,29.5 C 246.861,29.0861 273.195,29.5861 299.5,31C 321.606,37.1068 333.439,51.6068 335,74.5C 335.5,129.832 335.667,185.166 335.5,240.5C 275.166,240.333 214.832,240.5 154.5,241C 150.333,242.5 147.5,245.333 146,249.5C 145.5,278.165 145.333,306.831 145.5,335.5C 118.805,335.915 92.1387,335.415 65.5,334C 43.3941,327.893 31.5607,313.393 30,290.5C 29.0861,264.141 29.4194,237.807 31,211.5C 35.8333,193.333 47.3333,181.833 65.5,177C 130.812,175.699 196.145,175.032 261.5,175C 270.475,169.848 272.975,162.348 269,152.5C 267.235,149.527 264.735,147.36 261.5,146C 232.835,145.5 204.169,145.333 175.5,145.5C 175.333,121.831 175.5,98.1643 176,74.5C 179.011,47.6563 193.844,32.6563 220.5,29.5 Z M 365.5,175.5 C 392.195,175.085 418.861,175.585 445.5,177C 467.606,183.107 479.439,197.607 481,220.5C 481.914,246.859 481.581,273.193 480,299.5C 475.167,317.667 463.667,329.167 445.5,334C 380.188,335.301 314.855,335.968 249.5,336C 240.525,341.152 238.025,348.652 242,358.5C 243.765,361.473 246.265,363.64 249.5,365C 278.165,365.5 306.831,365.667 335.5,365.5C 335.915,392.195 335.415,418.861 334,445.5C 327.893,467.606 313.393,479.439 290.5,481C 267.167,481.667 243.833,481.667 220.5,481C 193.667,478.167 178.833,463.333 176,436.5C 175.5,381.168 175.333,325.834 175.5,270.5C 235.834,270.667 296.168,270.5 356.5,270C 360.667,268.5 363.5,265.667 365,261.5C 365.5,232.835 365.667,204.169 365.5,175.5 Z"/></g>
<g><path style="opacity:0.931" fill="#000000" d="M 214.5,74.5 C 230.654,72.4866 237.487,79.4866 235,95.5C 230.652,103.915 223.819,106.748 214.5,104C 206.085,99.6524 203.252,92.8191 206,83.5C 207.688,79.3148 210.521,76.3148 214.5,74.5 Z"/></g>
<g><path style="opacity:0.931" fill="#000000" d="M 284.5,406.5 C 300.654,404.487 307.487,411.487 305,427.5C 300.652,435.915 293.819,438.748 284.5,436C 276.085,431.652 273.252,424.819 276,415.5C 277.688,411.315 280.521,408.315 284.5,406.5 Z"/></g>
</svg>
